<?xml version="1.0" encoding="UTF-8"?>
<svg width="1024px" height="1024px" viewBox="0 0 1024 1024" version="1.1" xmlns="http://www.w3.org/2000/svg" xmlns:xlink="http://www.w3.org/1999/xlink">
    <title>logo</title>
    <g id="logo" stroke="none" stroke-width="1" fill="none" fill-rule="evenodd">
        <g>
            <rect id="Rectangle" fill="#5958D2" x="0" y="0" width="1024" height="1024"></rect>
            <g id="plug-svgrepo-com" transform="translate(281, 281)" fill="#FFFFFF">
                <path d="M177.680548,17.1449758 C166.691924,6.1672775 151.787645,0 136.246787,0 C120.705928,0 105.801649,6.1672775 94.813025,17.1449758 C7.10460457,104.780962 2.78412706,245.455222 84.9495897,338.297314 L7.72879158,415.43541 C-2.69825476,426.209457 -2.55734862,443.343341 8.04548635,453.944812 C18.6483213,464.546284 35.800434,464.703195 46.5958599,454.29748 L123.889992,377.122757 C216.876231,458.734184 357.322031,454.198185 444.836643,366.757096 C455.82611,355.78024 462,340.891923 462,325.367709 C462,309.843495 455.82611,294.955178 444.836643,283.978323 L385.986034,225.190742 L449.053353,162.190968 C459.470224,151.407104 459.313144,134.273361 448.700307,123.681881 C438.087469,113.090402 420.935216,112.949647 410.149617,123.365526 L347.082299,186.3653 L275.94823,115.307415 L339.015549,52.3076406 C349.112145,41.4837755 348.814226,24.6166859 338.341675,14.1553508 C327.869123,3.69401569 310.98395,3.39641558 300.14848,13.4821982 L237.081162,76.4819726 L177.680548,17.1449758 Z M133.680093,55.9704181 C134.355967,55.2813466 135.281052,54.8930382 136.246787,54.8930382 C137.212521,54.8930382 138.137606,55.2813466 138.81348,55.9704181 L405.932907,322.840393 C407.362922,324.232248 407.362922,326.50317 405.932907,327.895026 C335.741338,398.001816 221.948516,398.001816 151.756947,327.895026 L133.71676,309.87416 C63.5348063,239.757765 63.5348063,126.086814 133.71676,55.9704181 L133.680093,55.9704181 Z" id="Shape"></path>
            </g>
        </g>
    </g>
</svg>